<?xml version="1.0" standalone="no"?>
<!DOCTYPE svg PUBLIC "-//W3C//DTD SVG 20010904//EN"
 "http://www.w3.org/TR/2001/REC-SVG-20010904/DTD/svg10.dtd">
<svg version="1.0" xmlns="http://www.w3.org/2000/svg"
 width="500.000000pt" height="500.000000pt" viewBox="0 0 500.000000 500.000000"
 preserveAspectRatio="xMidYMid meet">
<metadata>
Created by potrace 1.14, written by Peter Selinger 2001-2017
</metadata>
<g transform="translate(0.000000,500.000000) scale(0.100000,-0.100000)"
fill="#000000" stroke="none">
<path d="M2335 4544 c-16 -2 -70 -9 -120 -15 -329 -41 -687 -192 -970 -408
-84 -64 -266 -242 -338 -331 -224 -277 -369 -604 -434 -975 -24 -140 -24 -490
0 -630 62 -354 196 -665 406 -940 64 -84 242 -266 331 -338 277 -224 604 -369
975 -434 140 -24 490 -24 630 0 371 65 698 210 975 434 89 72 267 254 331 338
210 275 344 586 406 940 24 140 24 490 0 630 -62 354 -196 665 -406 940 -64
84 -242 266 -331 338 -276 223 -610 372 -970 432 -90 15 -420 28 -485 19z
m353 -205 c727 -79 1334 -564 1563 -1250 225 -672 55 -1394 -445 -1895 -501
-500 -1223 -670 -1895 -445 -618 207 -1089 736 -1221 1372 -158 770 181 1552
852 1960 339 206 758 301 1146 258z"/>
<path d="M1624 3346 c-100 -19 -136 -32 -239 -84 -74 -38 -107 -63 -185 -142
-107 -107 -166 -200 -211 -334 -78 -232 -60 -467 51 -691 110 -221 289 -370
525 -437 109 -31 313 -31 426 0 246 67 454 254 553 497 13 33 27 77 31 98 l7
37 -210 0 -211 0 -32 -60 c-43 -82 -140 -172 -215 -200 -113 -42 -250 -26
-353 40 -250 162 -286 591 -66 799 66 62 137 99 217 110 174 25 331 -57 416
-217 l33 -62 210 0 c238 0 224 -7 190 91 -90 262 -312 473 -568 540 -101 26
-274 33 -369 15z"/>
<path d="M2800 2496 l0 -836 205 0 205 0 0 651 0 652 108 -6 c59 -3 128 -13
153 -22 120 -41 176 -172 134 -313 -30 -99 -113 -151 -244 -153 -31 0 -74 -4
-97 -7 l-40 -7 205 -397 204 -398 209 0 208 0 -21 43 c-12 23 -84 158 -160
300 -77 141 -139 261 -139 265 0 4 25 23 56 42 108 67 179 175 209 316 56 264
-58 538 -263 632 -126 58 -171 64 -569 69 l-363 5 0 -836z"/>
</g>
</svg>
